<?xml version="1.0" encoding="UTF-8"?>
<svg id="Layer_2" data-name="Layer 2" xmlns="http://www.w3.org/2000/svg" xmlns:xlink="http://www.w3.org/1999/xlink" viewBox="0 0 972.81 223.11">
  <defs>
    <style>
      .cls-1, .cls-2 {
        fill: #fff;
      }

      .cls-2, .cls-3, .cls-4, .cls-5 {
        fill-rule: evenodd;
      }

      .cls-6 {
        font-family: TimesNewRomanPSMT, 'Times New Roman';
        font-size: 152.89px;
        isolation: isolate;
      }

      .cls-6, .cls-4, .cls-7 {
        fill: #010101;
      }

      .cls-3 {
        fill: #a91f24;
      }

      .cls-8 {
        fill: #bbb4ba;
      }

      .cls-9 {
        clip-rule: evenodd;
      }

      .cls-9, .cls-10 {
        fill: none;
      }

      .cls-10 {
        clip-path: url(#clippath);
      }

      .cls-5 {
        fill: #cb8570;
      }
    </style>
    <clipPath id="clippath">
      <polygon class="cls-9" points="35.72 206.27 52.49 206.27 75.15 172.3 44.21 163 13.06 172.38 35.72 206.27 35.72 206.27"/>
    </clipPath>
  </defs>
  <g id="Layer_1-2" data-name="Layer 1">
    <path class="cls-7" d="m466.96,27c-2.78-1.4-4.58,0-4.58,4.1v172.46c0,.9,0,1.9.6,2.5,1.51,1.16,3.44.48,4.31-1.52.31-.72.46-1.55.42-2.38V30c0-1,.53-2.4-.75-3Z"/>
    <text class="cls-6" transform="translate(514.05 167.64)"><tspan x="0" y="0">UMDC</tspan></text>
    <g>
      <path class="cls-3" d="m11.38,171.57l32.74-10.02v-43.47H11.38v53.49h0Zm32.74-53.49h32.73v53.49l-32.73-10.02v-43.47h0ZM1.32,107.25v10.83h85.59v-10.83H1.32Zm0,0l42.8-16.12,42.79,16.12H1.32Zm19.26-45.58h.49v-21.5h-.49v21.5h0Zm0,21.51h.49v-21.51h-.49v21.51h0Zm0-.01h.49v20.4l-.49-3.65v-16.75h0Zm0-.21v16.96l23.54-8.89,23.54,8.89v-16.96H20.58Zm47.09.21l.67-2.42v20.4l-.67-1.22v-16.75h0Zm0,.01l.67-2.42v-21.51l-.67,2.42v21.51h0Zm0-21.51l.67-2.42v-21.5l-.67,2.42v21.5h0Zm-47.09-21.48h47.09v42.77H20.58v-42.77h0Zm0-6.28c0-13,10.53-23.54,23.54-23.54s23.54,10.55,23.54,23.54v6.26H20.58v-6.26h0Z"/>
      <path class="cls-1" d="m45,71.21c.89,0,1.62.72,1.62,1.62s-.72,1.62-1.62,1.62c-3.57,0-6.8-1.45-9.14-3.78-2.34-2.34-3.78-5.57-3.78-9.14s1.45-6.8,3.78-9.14c2.34-2.34,5.57-3.78,9.14-3.78s6.8,1.45,9.14,3.79,3.79,5.57,3.79,9.14c0,.89-.72,1.62-1.62,1.62s-1.62-.72-1.62-1.62c0-2.68-1.09-5.1-2.84-6.85-1.76-1.76-4.18-2.84-6.85-2.84s-5.1,1.09-6.85,2.84c-1.75,1.75-2.84,4.18-2.84,6.85s1.08,5.1,2.84,6.85c1.75,1.75,4.18,2.84,6.85,2.84h0Z"/>
      <path class="cls-1" d="m49.46,56.8c.68-.57,1.7-.48,2.27.21.57.68.48,1.7-.21,2.27l-5.49,4.56c-.52.43-1.24.48-1.8.18l-4.67-2.56c-.78-.43-1.07-1.4-.64-2.19.43-.78,1.4-1.07,2.18-.64l3.72,2.03,4.64-3.86h0Z"/>
      <path class="cls-7" d="m68.91,99.19c0,.66-.56,1.2-1.25,1.2s-1.25-.54-1.25-1.2v-61.32c0-.66.56-1.2,1.25-1.2s1.25.54,1.25,1.2v61.32h0Zm-49.58.85v-62.12h2.49v62.12h-2.49Zm1.25-61.1h47.09c.69,0,1.25.56,1.25,1.25v42.77c0,.69-.56,1.25-1.25,1.25H20.58c-.69,0-1.25-.56-1.25-1.25v-42.77c0-.69.56-1.25,1.25-1.25h0Zm45.84,2.49H21.82v40.28h44.59v-40.28h0ZM45.37,0v10.37h-2.49V0h2.49Zm33.26,27.3v76h-2.49V27.3h2.49Zm-10.97,32.93h9.72v2.88h-9.72v-2.88h0Zm0,21.51h9.72v2.88h-9.72v-2.88h0Zm0,0h9.72v2.88h-9.72v-2.88h0Zm0,.18h9.72v2.49h-9.72v-2.49h0Zm1.3-21.55h7.12v-18.89h-7.12v18.89h0Zm8.42,2.6h-9.72c-.72,0-1.3-.58-1.3-1.3v-21.5c0-.72.58-1.3,1.3-1.3h9.72c.72,0,1.3.58,1.3,1.3v21.5c0,.72-.58,1.3-1.3,1.3h0Zm-8.42,18.91h7.12v-18.91h-7.12v18.91h0Zm8.42,2.6h-9.72c-.72,0-1.3-.58-1.3-1.3v-21.51c0-.72.58-1.3,1.3-1.3h9.72c.72,0,1.3.58,1.3,1.3v21.51c0,.72-.58,1.3-1.3,1.3h0ZM12.1,27.3v76h-2.49V27.3h2.49Zm8.47,35.81h-9.72v-2.88h9.72v2.88h0Zm0,21.51h-9.72v-2.88h9.72v2.88h0Zm0,0h-9.72v-2.88h9.72v2.88h0Zm0-.21h-9.72v-2.49h9.72v2.49h0Zm0-21.44h-9.72c-.72,0-1.3-.58-1.3-1.3v-21.5c0-.72.58-1.3,1.3-1.3h9.72c.72,0,1.3.58,1.3,1.3v21.5c0,.72-.58,1.3-1.3,1.3h0Zm-8.42-2.6h7.11v-18.89h-7.11v18.89h0Zm8.42,24.11h-9.72c-.72,0-1.3-.58-1.3-1.3v-21.51c0-.72.58-1.3,1.3-1.3h9.72c.72,0,1.3.58,1.3,1.3v21.51c0,.72-.58,1.3-1.3,1.3h0Zm-8.42-2.6h7.11v-18.91h-7.11v18.91h0Zm7.17-47.97c0-6.84,2.78-13.04,7.26-17.53,4.48-4.49,10.68-7.26,17.53-7.26s13.04,2.78,17.53,7.26c4.49,4.49,7.26,10.69,7.26,17.53v6.26c0,.69-.56,1.25-1.25,1.25H20.58c-.69,0-1.25-.56-1.25-1.25v-6.26h0Zm9.03-15.77c-4.04,4.03-6.53,9.61-6.53,15.77v5.02h44.59v-5.02c0-6.16-2.49-11.73-6.53-15.77-4.03-4.03-9.61-6.53-15.77-6.53s-11.73,2.5-15.76,6.53h0Zm27.14,188.12l-11.38,14.7-11.38-14.7h22.76Zm-11.38-113.73L2.64,108.16v8.6h82.95v-8.6l-41.47-15.62h0ZM.85,106.02l42.8-16.12c.29-.11.62-.12.93,0l42.7,16.09c.55.16.94.67.94,1.26v10.82c0,.73-.59,1.32-1.32,1.32H1.32c-.73,0-1.32-.59-1.32-1.32v-10.82c0-.53.33-1.03.85-1.23h0Zm43.26,2.55H1.32v-2.64h42.8v2.64h0ZM0,118.08v-11.73l44.12-16.62,44.11,16.62v13.05H0v-1.32h0Zm2.64-9.92v8.6h82.95v-8.6l-41.47-15.62L2.64,108.16h0Zm41.48-2.23h42.79v2.64h-42.79v-2.64h0Zm34.45,12.14v53.93c-13.18,17.04-21.26,34.07-34.45,51.1-13.19-17.03-21.36-34.06-34.54-51.1v-53.93h2.64v53.04l31.91,47.7,31.82-47.7v-53.04h2.64Zm-1.81,54.71l-32.64-9.82-32.73,9.82-.99-2.44,33.72-10.22,33.63,10.22-.99,2.44h0ZM.94,105.99l42.71-16.09c.31-.12.64-.11.93,0l42.79,16.12c.68.26,1.02,1.01.77,1.69-.2.53-.7.85-1.23.85H1.32c-.73,0-1.32-.59-1.32-1.32,0-.6.4-1.1.94-1.26h0Zm43.17-13.45l-35.57,13.4h71.13l-35.56-13.4h0Zm-31.8,76.91l30.38-8.86v-41.09H12.32v49.95h0Zm32.34-6.59l-33.16,9.99c-.18.08-.39.13-.6.13-.78,0-1.42-.64-1.42-1.42v-53.49c0-.78.64-1.42,1.42-1.42h33.22c.79,0,1.42.64,1.42,1.42v43.47c0,.56-.34,1.09-.89,1.32h0Zm-.53-46.11h33.14c.73,0,1.32.59,1.32,1.32v53.49c0,.73-.59,1.32-1.32,1.32-.2,0-.39-.04-.56-.12l-33.07-9.99c-.51-.21-.82-.7-.82-1.22v-43.47c0-.73.59-1.32,1.32-1.32h0Zm31.82,2.64h-30.5v41.27l30.5,8.94v-50.21h0Z"/>
      <polygon class="cls-1" points="44.12 105.93 79.68 105.93 44.12 92.54 8.55 105.93 44.12 105.93 44.12 105.93"/>
      <polygon class="cls-2" points="85.59 108.57 44.12 108.57 85.59 108.57 85.59 108.57"/>
      <polygon class="cls-2" points="44.12 108.57 2.64 108.57 44.12 108.57 44.12 108.57"/>
      <polygon class="cls-5" points="75.94 169.61 75.94 119.39 45.54 119.39 45.54 160.56 58.24 164.41 75.94 169.61 75.94 169.61"/>
      <path class="cls-5" d="m21.88,81.72h44.48v-40.28H21.88s0,20.24,0,20.24v20.04h0Zm32.27-29.33c2.34,2.34,3.79,5.57,3.79,9.14,0,.89-.72,1.62-1.62,1.62s-1.62-.72-1.62-1.62c0-2.68-1.09-5.1-2.84-6.85-1.76-1.76-4.18-2.84-6.85-2.84s-5.1,1.09-6.85,2.84c-1.75,1.75-2.84,4.18-2.84,6.85s1.08,5.1,2.84,6.85c1.75,1.75,4.18,2.84,6.85,2.84.89,0,1.62.72,1.62,1.62s-.72,1.62-1.62,1.62c-3.57,0-6.8-1.45-9.14-3.78-2.34-2.34-3.78-5.57-3.78-9.14s1.45-6.8,3.78-9.14c2.34-2.34,5.57-3.78,9.14-3.78s6.8,1.45,9.14,3.79h0Zm-4.68,4.42c.68-.57,1.7-.48,2.27.21.57.68.48,1.7-.21,2.27l-5.49,4.56c-.52.43-1.24.48-1.8.18l-4.67-2.56c-.78-.43-1.07-1.4-.64-2.19.43-.78,1.4-1.07,2.18-.64l3.72,2.03,4.64-3.86h0Z"/>
      <polygon class="cls-2" points="35.72 206.27 52.49 206.27 75.15 172.3 44.21 163 13.06 172.38 35.72 206.27 35.72 206.27"/>
      <g class="cls-10">
        <polygon class="cls-8" points="9.82 171.68 44.03 161.06 44.03 221.39 9.82 171.68 9.82 171.68"/>
      </g>
      <path class="cls-4" d="m147.87,37.55v11.31h-.9c-.36-10.23-11.73-10.41-12.15-10.41h-2.33v34.71c0,4.01,2.21,5.62,4.73,5.62v.9h-16.76v-.9c2.51,0,4.73-1.62,4.73-5.62v-34.71h-2.34c-.9,0-11.73.18-12.09,10.41h-.9v-11.31h38Z"/>
      <path class="cls-4" d="m181.06,79.67h-11.19v-.9c2.27-.66,2.39-2.51,2.39-5.56v-12.03c0-3.89-1.8-5.92-5.63-5.92-2.27,0-4.43,1.97-5.56,4.19v13.76c0,3.29.3,4.97,2.45,5.51v.96h-11.19v-.96c2.27-.66,2.39-2.45,2.39-5.51v-31.48c0-2.09-.54-2.75-2.99-3.41v-.9l9.34-2.15v22.86c1.08-3.29,5.8-6.64,9.63-6.64,4.85,0,7.9,2.27,7.9,9.45v12.27c0,3.29.36,5.03,2.45,5.56v.9h0Z"/>
      <path class="cls-4" d="m201.34,64.41c0-8.14-3.17-12.03-6.22-12.03-3.47,0-6.58,5.39-6.58,12.03h12.81Zm5.27,8.08c-.78,2.93-4.25,7.72-11.79,7.72s-12.98-6.7-12.98-14.18c0-8.62,5.69-14.54,13.52-14.54s12.21,4.43,12.21,13.82h-19.03c.36,6.94,3.65,10.11,7.96,10.77,3.47.54,7.96-1.14,9.28-4.01l.84.42h0Z"/>
      <path class="cls-4" d="m114.36,118.94v-21.48c0-3.83-1.85-5.21-4.49-5.21v-.9h16.99v.9c-2.57,0-5.21.78-5.21,5.26v21.9c0,7.24,4.43,11.49,10.53,11.49,5.33,0,10.29-4.07,10.29-11.67v-16.99c0-2.87,0-10.05-7.6-9.99v-.9h16.81v.9c-8.44-.06-8.32,7.12-8.32,9.99v16.99c.06,11.79-8.32,14.78-14.66,14.78-7.9,0-14.36-5.33-14.36-15.08h0Z"/>
      <path class="cls-4" d="m179.46,133.48h-11.19v-.9c2.28-.66,2.4-2.45,2.4-5.5v-12.27c0-3.47-2.04-5.86-5.51-5.86-2.69,0-5.39,2.75-5.63,5.03v13.17c0,3.29.36,4.85,2.45,5.44v.9h-11.13v-.9c2.27-.66,2.33-2.39,2.33-5.44v-15.08c0-2.09-.54-2.81-2.99-3.83v-.9l9.33-2.03v6.34c1.32-3.59,5.81-6.34,9.58-6.34,4.73,0,7.9,2.09,7.9,9.34v12.45c0,3.29.3,4.97,2.45,5.5v.9h0Z"/>
      <path class="cls-4" d="m183.16,96.86c0-1.97,1.56-3.59,3.53-3.59s3.65,1.62,3.65,3.59-1.67,3.53-3.65,3.53-3.53-1.56-3.53-3.53h0Zm9.75,36.62h-11.13v-.9c2.27-.72,2.39-2.45,2.39-5.51v-14.96c0-2.03-.6-2.87-3.05-3.89v-.9l9.34-2.03v21.78c0,3.29.3,4.91,2.45,5.51v.9h0Z"/>
      <path class="cls-4" d="m224.03,105.84v.84c-1.79,0-4.01.12-7.48,8.5l-7.3,18.85h-.78c-10.59-22.98-11.25-24.24-11.25-24.24-1.44-3.05-3.05-3.05-4.13-3.11v-.84h13.29v.84c-3.65,0-1.5,4.37-1.5,4.37l6.7,14.42,3.95-10.23s3.41-8.56-3.11-8.56v-.84h11.61Z"/>
      <path class="cls-4" d="m240.96,118.22c0-8.14-3.17-12.03-6.22-12.03-3.47,0-6.58,5.39-6.58,12.03h12.81Zm5.27,8.08c-.78,2.93-4.25,7.72-11.79,7.72s-12.98-6.7-12.98-14.18c0-8.62,5.69-14.54,13.52-14.54s12.21,4.43,12.21,13.82h-19.03c.36,6.94,3.65,10.11,7.96,10.77,3.47.54,7.96-1.14,9.28-4.01l.84.42h0Z"/>
      <path class="cls-4" d="m269.15,106.49c1.5,1.5,1.5,3.95,0,5.45-1.5,1.5-3.89,1.56-5.51.06-.72-.78-1.08-1.74-1.02-2.64.12-.84-3.11.18-5.15,3.95v13.7c0,3.35.3,4.97,2.45,5.56v.9h-11.25v-.9c2.27-.72,2.39-2.45,2.39-5.56v-14.96c0-2.04-.54-2.93-2.99-3.83v-.9l9.39-2.03v6.46c2.69-4.49,5.63-5.74,7.54-6.22,1.2-.3,3.05-.06,4.13.96h0Z"/>
      <path class="cls-4" d="m283.22,134.02c-7.24,0-10.65-2.57-10.65-2.57v-7.84h.9c.66,3.17,2.33,9.52,9.75,9.52,5.27,0,5.27-5.87.72-8.86l-6.04-3.65c-5.81-3.71-7.24-7.9-4.37-12.09,0,0,2.03-3.23,8.08-3.23,6.88,0,9.81,1.86,9.81,1.86v7h-.9c-.6-2.81-2.39-7.96-8.92-7.96-4.79,0-5.87,5.09-.66,8.38l6.04,3.77c5.39,3.35,7.12,8.38,4.19,12.57,0,0-2.15,3.11-7.96,3.11h0Z"/>
      <path class="cls-4" d="m297.1,96.86c0-1.97,1.56-3.59,3.53-3.59s3.65,1.62,3.65,3.59-1.67,3.53-3.65,3.53-3.53-1.56-3.53-3.53h0Zm9.75,36.62h-11.13v-.9c2.27-.72,2.39-2.45,2.39-5.51v-14.96c0-2.03-.6-2.87-3.05-3.89v-.9l9.34-2.03v21.78c0,3.29.3,4.91,2.45,5.51v.9h0Z"/>
      <path class="cls-4" d="m326.12,128.58c-1.02,2.69-4.19,5.45-7.96,5.45-4.49,0-7.24-1.91-7.24-9.16v-18.13h-2.99l-.18-.9h3.17v-8.26l6.34-1.02v9.27h7.12l-.24.9h-6.88v17.95c0,4.07,1.56,5.75,4.49,5.75,1.73,0,3.11-1.26,3.59-2.33l.78.48h0Z"/>
      <path class="cls-4" d="m356.27,105.84v.84c-1.67,0-4.07.36-7.72,9.45l-9.21,24.71c-1.44,3.77-3.11,5.33-4.13,6.1-.96.78-2.81,1.14-4.07.54-1.86-.84-2.63-2.99-1.86-4.85.84-1.86,2.99-2.69,4.85-1.86.96.42,1.56,1.26,1.8,2.15.24.78,1.62.18,2.51-2.21l2.51-6.88c-5.45-12.15-11.25-24.48-11.25-24.48-1.08-2.51-3.11-2.63-4.01-2.69v-.84h13.23v.84c-3.47,0-1.67,4.01-1.67,4.01l6.88,14.72,3.59-9.46s3.83-9.33-3.11-9.27v-.84h11.67Z"/>
      <path class="cls-4" d="m381.2,106.2c-4.43,0-6.52,2.63-6.52,13.46s2.09,13.46,6.52,13.46,6.52-2.63,6.52-13.46-2.04-13.46-6.52-13.46h0Zm0,27.83c-9.1,0-14-6.52-14-14.36s4.91-14.36,14-14.36,14.06,6.46,14.06,14.36-4.91,14.36-14.06,14.36h0Z"/>
      <path class="cls-4" d="m412.14,96.86c-1.68-.78-2.33-2.63-1.62-4.31.42-.84,1.08-1.38,1.86-1.56.72-.12-.18-1.2-2.15-1.2-2.57,0-4.13,3.23-4.13,16.04h6.58l-.18.9h-6.4v20.82c0,3.23.54,4.55,2.69,5.03v.9h-11.37v-.9c2.27-.54,2.33-2.03,2.33-5.03v-20.82h-3.83l-.06-.9h3.89c0-13.4,3.35-16.87,10.41-16.87,2.99,0,5.27,1.73,5.87,2.63.66.96.9,2.51.42,3.65-.78,1.62-2.69,2.33-4.31,1.62h0Z"/>
      <path class="cls-4" d="m150.02,145.17v11.07h-.9c-1.55-10.59-14.96-10.17-17.29-10.17h-3.46v19.45h3.76c.84,0,8.68.18,9.45-6.04h.9v13.16h-.9c-.78-6.28-8.62-6.1-9.45-6.1h-3.76v14.02c0,5.38,2.21,5.85,4.85,5.85v.9h-16.71v-.9c2.57,0,4.45-1.66,4.45-5.73v-29.18c0-3.71-1.81-5.43-4.45-5.43v-.9h33.52Z"/>
      <path class="cls-4" d="m158.38,180.35c0,.84.54,4.31,4.31,4.31,2.57,0,4.01-1.86,4.55-3.29v-8.5c-6.4,1.43-8.86,4.13-8.86,7.48h0Zm20.71,3.35c-.42,1.86-2.81,4.13-6.28,4.13,0,0-4.97.06-5.5-4.97-.84,2.75-4.37,4.97-8.56,4.97,0,0-6.88,0-6.88-6.1s5.03-7.24,15.38-9.87v-3.59c0-6.16-3.23-9.45-7.72-7.3-2.09,1.08-2.39,2.16-2.03,2.21.84.12,1.5.48,2.03,1.2,1.02,1.38.66,3.29-.72,4.31-1.37.96-3.35.66-4.31-.72-.72-1.02-.78-2.33-.24-3.29.54-.96,1.44-2.63,4.67-4.37,2.63-1.38,5.68-1.2,5.68-1.2,7.18,0,9.1,4.91,9.1,11.97v9.58s0,3.95,2.81,3.95c0,0,1.32,0,1.68-1.26l.9.36h0Z"/>
      <path class="cls-4" d="m183.41,150.67c0-1.97,1.56-3.59,3.53-3.59s3.65,1.62,3.65,3.59-1.67,3.53-3.65,3.53-3.53-1.56-3.53-3.53h0Zm9.75,36.62h-11.13v-.9c2.28-.72,2.39-2.45,2.39-5.5v-14.96c0-2.03-.6-2.87-3.05-3.89v-.9l9.34-2.03v21.78c0,3.29.3,4.91,2.45,5.5v.9h0Z"/>
      <path class="cls-4" d="m207.71,187.84c-7.24,0-10.65-2.57-10.65-2.57v-7.84h.9c.66,3.17,2.33,9.51,9.75,9.51,5.27,0,5.27-5.86.72-8.86l-6.04-3.65c-5.81-3.71-7.24-7.9-4.37-12.09,0,0,2.03-3.23,8.08-3.23,6.88,0,9.81,1.85,9.81,1.85v7h-.9c-.6-2.81-2.39-7.96-8.92-7.96-4.79,0-5.86,5.09-.66,8.38l6.04,3.77c5.39,3.35,7.12,8.38,4.19,12.57,0,0-2.15,3.11-7.96,3.11h0Z"/>
      <path class="cls-4" d="m228.05,180.35c0,.84.54,4.31,4.31,4.31,2.57,0,4.01-1.86,4.55-3.29v-8.5c-6.4,1.43-8.86,4.13-8.86,7.48h0Zm20.71,3.35c-.42,1.86-2.81,4.13-6.28,4.13,0,0-4.97.06-5.5-4.97-.84,2.75-4.37,4.97-8.56,4.97,0,0-6.88,0-6.88-6.1s5.03-7.24,15.38-9.87v-3.59c0-6.16-3.23-9.45-7.72-7.3-2.09,1.08-2.39,2.16-2.03,2.21.84.12,1.5.48,2.03,1.2,1.02,1.38.66,3.29-.72,4.31-1.38.96-3.35.66-4.31-.72-.72-1.02-.78-2.33-.24-3.29.54-.96,1.44-2.63,4.67-4.37,2.63-1.38,5.68-1.2,5.68-1.2,7.18,0,9.09,4.91,9.09,11.97v9.58s0,3.95,2.81,3.95c0,0,1.32,0,1.68-1.26l.9.36h0Z"/>
      <path class="cls-4" d="m261.44,187.3h-11.19v-.9c2.27-.66,2.39-2.45,2.39-5.5v-31.54c0-2.09-.54-2.99-2.99-3.65v-.9l9.33-1.92v38c0,3.29.3,4.97,2.45,5.5v.9h0Z"/>
      <path class="cls-4" d="m270.77,180.35c0,.84.54,4.31,4.31,4.31,2.57,0,4.01-1.86,4.55-3.29v-8.5c-6.4,1.43-8.86,4.13-8.86,7.48h0Zm20.7,3.35c-.42,1.86-2.81,4.13-6.28,4.13,0,0-4.97.06-5.51-4.97-.84,2.75-4.37,4.97-8.56,4.97,0,0-6.88,0-6.88-6.1s5.03-7.24,15.38-9.87v-3.59c0-6.16-3.23-9.45-7.72-7.3-2.09,1.08-2.39,2.16-2.03,2.21.84.12,1.5.48,2.03,1.2,1.02,1.38.66,3.29-.72,4.31-1.38.96-3.35.66-4.31-.72-.72-1.02-.78-2.33-.24-3.29.54-.96,1.44-2.63,4.67-4.37,2.63-1.38,5.68-1.2,5.68-1.2,7.18,0,9.1,4.91,9.1,11.97v9.58s0,3.95,2.81,3.95c0,0,1.32,0,1.67-1.26l.9.36h0Z"/>
      <path class="cls-4" d="m307.75,161.33c-4.19,0-6.58,3.29-6.58,7.72v8.32c0,6.88,3.53,9.57,7.24,9.57,4.19,0,7.06-3.17,7.06-12.51s-2.63-13.1-7.72-13.1h0Zm.78,26.51c-3.53,0-6.58-1.08-8.56-2.99-1.92,1.74-5.09,3.11-5.09,2.16v-37.7c0-2.03-.6-2.93-3.05-3.59v-.9l9.34-1.92v21.12c1.92-3.41,6.1-4.91,9.1-4.91,7.36,0,12.63,5.81,12.63,14.66,0,9.45-6.16,14.06-14.36,14.06h0Z"/>
      <path class="cls-4" d="m331.54,180.35c0,.84.54,4.31,4.31,4.31,2.57,0,4.01-1.86,4.55-3.29v-8.5c-6.4,1.43-8.86,4.13-8.86,7.48h0Zm20.7,3.35c-.42,1.86-2.81,4.13-6.28,4.13,0,0-4.97.06-5.5-4.97-.84,2.75-4.37,4.97-8.56,4.97,0,0-6.88,0-6.88-6.1s5.03-7.24,15.38-9.87v-3.59c0-6.16-3.23-9.45-7.72-7.3-2.09,1.08-2.39,2.16-2.03,2.21.84.12,1.5.48,2.03,1.2,1.02,1.38.66,3.29-.72,4.31-1.38.96-3.35.66-4.31-.72-.72-1.02-.78-2.33-.24-3.29.54-.96,1.44-2.63,4.67-4.37,2.63-1.38,5.68-1.2,5.68-1.2,7.18,0,9.09,4.91,9.09,11.97v9.58s0,3.95,2.81,3.95c0,0,1.32,0,1.68-1.26l.9.36h0Z"/>
      <path class="cls-4" d="m373.42,169.34c0-6.64-3.65-9.34-7.18-9.34-4.19,0-7.12,3.05-7.12,12.39s2.51,13.52,7.54,13.52c4.01,0,6.76-2.93,6.76-7.12v-9.45h0Zm9.34,17.23l-7.66,1.2c-1.68.24-1.68-1.08-1.68-1.08v-3.47c-1.92,3.29-6.1,4.61-8.98,4.61-7.42,0-12.69-5.86-12.69-14.72,0-9.52,6.22-14,14.36-14,2.87,0,5.38.78,7.3,1.97v-11.91c0-2.1-.6-2.81-3.05-3.47v-.9l9.34-1.92v39.14c0,2.93.6,3.47,3.05,3.65v.9h0Z"/>
    </g>
  </g>
</svg>